<svg xmlns="http://www.w3.org/2000/svg" viewBox="0 0 160 240">
  <defs>
    <linearGradient id="cr-main" x1="0%" y1="0%" x2="0%" y2="100%">
      <stop offset="0%" stop-color="#d32f2f"/>
      <stop offset="100%" stop-color="#b71c1c"/>
    </linearGradient>
  </defs>

  <!-- LEFT SHOULDER MANTLE — drapes from collar over left arm -->
  <path d="M 46 88 L 2 98 L 2 130 L 14 126 L 38 104 L 40 92 Z"
        fill="#d32f2f" stroke="#b71c1c" stroke-width="0.8"/>
  <path d="M 40 92 Q 26 90 6 100" fill="none" stroke="#ef5350" stroke-width="1.2" opacity="0.45"/>

  <!-- RIGHT SHOULDER MANTLE -->
  <path d="M 114 88 L 158 98 L 158 130 L 146 126 L 122 104 L 120 92 Z"
        fill="#d32f2f" stroke="#b71c1c" stroke-width="0.8"/>
  <path d="M 120 92 Q 134 90 154 100" fill="none" stroke="#ef5350" stroke-width="1.2" opacity="0.45"/>

  <!-- COLLAR — arc flanking neck, visible y=84–96 -->
  <path d="M 46 88 Q 80 76 114 88 Q 106 94 80 96 Q 54 94 46 88 Z" fill="#9a0007"/>
  <path d="M 46 88 Q 80 76 114 88" fill="none" stroke="#ffd700" stroke-width="1.2"/>
  <!-- Clasp -->
  <circle cx="80" cy="86" r="5.5" fill="#ffd700" stroke="#f9a825" stroke-width="1.2"/>
  <circle cx="80" cy="86" r="2.8" fill="#ff8f00"/>
  <circle cx="79" cy="85" r="1" fill="white" opacity="0.6"/>
</svg>
