<svg xmlns="http://www.w3.org/2000/svg" viewBox="0 0 160 240">
  <!-- Left loop outer -->
  <ellipse cx="61" cy="17" rx="22" ry="14" fill="#ffa000" stroke="#e65100" stroke-width="1.5" transform="rotate(-20 61 17)"/>
  <!-- Left loop inner highlight -->
  <ellipse cx="59" cy="14" rx="13" ry="8" fill="#ffcc02" opacity="0.5" transform="rotate(-20 61 17)"/>
  <!-- Right loop outer -->
  <ellipse cx="99" cy="17" rx="22" ry="14" fill="#ffa000" stroke="#e65100" stroke-width="1.5" transform="rotate(20 99 17)"/>
  <!-- Right loop inner highlight -->
  <ellipse cx="101" cy="14" rx="13" ry="8" fill="#ffcc02" opacity="0.5" transform="rotate(20 99 17)"/>
  <!-- Left tail with angled end -->
  <path d="M 70 23 L 53 42 L 58 46 L 59 43 L 72 28 Z" fill="#ffa000" stroke="#e65100" stroke-width="1"/>
  <!-- Right tail with angled end -->
  <path d="M 90 23 L 107 42 L 102 46 L 101 43 L 88 28 Z" fill="#ffa000" stroke="#e65100" stroke-width="1"/>
  <!-- Center knot (shadow base) -->
  <ellipse cx="80" cy="18" rx="11" ry="10" fill="#bf360c"/>
  <!-- Center knot main -->
  <ellipse cx="80" cy="17" rx="10" ry="9" fill="#e65100" stroke="#bf360c" stroke-width="1.2"/>
  <!-- Knot highlight -->
  <ellipse cx="78" cy="14" rx="5" ry="4" fill="#ffcc02" opacity="0.4"/>
  <!-- Where loops meet knot — shadow -->
  <ellipse cx="69" cy="17" rx="7" ry="9" fill="#bf360c" opacity="0.3"/>
  <ellipse cx="91" cy="17" rx="7" ry="9" fill="#bf360c" opacity="0.3"/>
</svg>
